<mxfile host="app.diagrams.net" modified="2021-06-03T08:38:53.897Z" agent="5.0 (Macintosh; Intel Mac OS X 10_15_7) AppleWebKit/605.1.15 (KHTML, like Gecko) Version/14.1.1 Safari/605.1.15" etag="-5h38jlO32o-gLlWfMCY" version="14.7.3" type="github">
  <diagram name="Page-1" id="0783ab3e-0a74-02c8-0abd-f7b4e66b4bec">
    <mxGraphModel dx="946" dy="645" grid="1" gridSize="10" guides="1" tooltips="1" connect="1" arrows="1" fold="1" page="1" pageScale="1" pageWidth="850" pageHeight="1100" background="none" math="0" shadow="0">
      <root>
        <mxCell id="0" />
        <mxCell id="1" parent="0" />
        <mxCell id="bbg8Lp6YEfKbnEey-BYv-2" style="edgeStyle=orthogonalEdgeStyle;curved=1;orthogonalLoop=1;jettySize=auto;html=1;exitX=0.5;exitY=1;exitDx=0;exitDy=0;entryX=0.5;entryY=0;entryDx=0;entryDy=0;strokeColor=#000000;" edge="1" parent="1" source="60571a20871a0731-4" target="bbg8Lp6YEfKbnEey-BYv-1">
          <mxGeometry relative="1" as="geometry" />
        </mxCell>
        <mxCell id="60571a20871a0731-4" value="" style="ellipse;whiteSpace=wrap;html=1;rounded=0;shadow=0;comic=0;labelBackgroundColor=none;strokeWidth=1;fillColor=#000000;fontFamily=Verdana;fontSize=12;align=center;" parent="1" vertex="1">
          <mxGeometry x="390" y="50" width="40" height="40" as="geometry" />
        </mxCell>
        <mxCell id="bbg8Lp6YEfKbnEey-BYv-5" style="edgeStyle=orthogonalEdgeStyle;curved=1;orthogonalLoop=1;jettySize=auto;html=1;exitX=0.5;exitY=1;exitDx=0;exitDy=0;entryX=0.5;entryY=0;entryDx=0;entryDy=0;strokeColor=#000000;" edge="1" parent="1" source="bbg8Lp6YEfKbnEey-BYv-1" target="bbg8Lp6YEfKbnEey-BYv-4">
          <mxGeometry relative="1" as="geometry" />
        </mxCell>
        <mxCell id="bbg8Lp6YEfKbnEey-BYv-1" value="Mesajları&lt;br&gt;Görüntüle" style="rounded=1;whiteSpace=wrap;html=1;" vertex="1" parent="1">
          <mxGeometry x="350" y="150" width="120" height="60" as="geometry" />
        </mxCell>
        <mxCell id="bbg8Lp6YEfKbnEey-BYv-6" style="edgeStyle=orthogonalEdgeStyle;curved=1;orthogonalLoop=1;jettySize=auto;html=1;exitX=0;exitY=1;exitDx=0;exitDy=0;strokeColor=#000000;" edge="1" parent="1" source="bbg8Lp6YEfKbnEey-BYv-4">
          <mxGeometry relative="1" as="geometry">
            <mxPoint x="378" y="290" as="targetPoint" />
          </mxGeometry>
        </mxCell>
        <mxCell id="bbg8Lp6YEfKbnEey-BYv-9" style="edgeStyle=orthogonalEdgeStyle;curved=1;orthogonalLoop=1;jettySize=auto;html=1;exitX=1;exitY=1;exitDx=0;exitDy=0;entryX=0.122;entryY=0;entryDx=0;entryDy=0;entryPerimeter=0;strokeColor=#000000;" edge="1" parent="1" source="bbg8Lp6YEfKbnEey-BYv-4" target="bbg8Lp6YEfKbnEey-BYv-8">
          <mxGeometry relative="1" as="geometry" />
        </mxCell>
        <mxCell id="bbg8Lp6YEfKbnEey-BYv-4" value="" style="whiteSpace=wrap;html=1;rounded=0;shadow=0;comic=0;labelBackgroundColor=none;strokeWidth=1;fontFamily=Verdana;fontSize=12;align=center;rotation=0;fillColor=#000000;" vertex="1" parent="1">
          <mxGeometry x="378.25" y="250" width="63.5" height="10" as="geometry" />
        </mxCell>
        <mxCell id="bbg8Lp6YEfKbnEey-BYv-11" style="edgeStyle=orthogonalEdgeStyle;curved=1;orthogonalLoop=1;jettySize=auto;html=1;exitX=0.5;exitY=1;exitDx=0;exitDy=0;strokeColor=#000000;" edge="1" parent="1" source="bbg8Lp6YEfKbnEey-BYv-7">
          <mxGeometry relative="1" as="geometry">
            <mxPoint x="345" y="380" as="targetPoint" />
          </mxGeometry>
        </mxCell>
        <mxCell id="bbg8Lp6YEfKbnEey-BYv-7" value="Mesaj Oku" style="rounded=1;whiteSpace=wrap;html=1;" vertex="1" parent="1">
          <mxGeometry x="300" y="290" width="90" height="40" as="geometry" />
        </mxCell>
        <mxCell id="bbg8Lp6YEfKbnEey-BYv-14" style="edgeStyle=orthogonalEdgeStyle;orthogonalLoop=1;jettySize=auto;html=1;exitX=0.5;exitY=1;exitDx=0;exitDy=0;entryX=0.5;entryY=0;entryDx=0;entryDy=0;strokeColor=#000000;rounded=0;" edge="1" parent="1" source="bbg8Lp6YEfKbnEey-BYv-8" target="bbg8Lp6YEfKbnEey-BYv-13">
          <mxGeometry relative="1" as="geometry" />
        </mxCell>
        <mxCell id="bbg8Lp6YEfKbnEey-BYv-8" value="Mesaj Yaz" style="rounded=1;whiteSpace=wrap;html=1;" vertex="1" parent="1">
          <mxGeometry x="430" y="290" width="90" height="40" as="geometry" />
        </mxCell>
        <mxCell id="bbg8Lp6YEfKbnEey-BYv-24" style="edgeStyle=orthogonalEdgeStyle;rounded=0;orthogonalLoop=1;jettySize=auto;html=1;exitX=0.5;exitY=1;exitDx=0;exitDy=0;entryX=0.105;entryY=-0.2;entryDx=0;entryDy=0;entryPerimeter=0;strokeColor=#000000;" edge="1" parent="1" source="bbg8Lp6YEfKbnEey-BYv-12" target="bbg8Lp6YEfKbnEey-BYv-20">
          <mxGeometry relative="1" as="geometry" />
        </mxCell>
        <mxCell id="bbg8Lp6YEfKbnEey-BYv-12" value="Kullanıcı Seç" style="rounded=1;whiteSpace=wrap;html=1;" vertex="1" parent="1">
          <mxGeometry x="300" y="380" width="90" height="40" as="geometry" />
        </mxCell>
        <mxCell id="bbg8Lp6YEfKbnEey-BYv-15" style="edgeStyle=orthogonalEdgeStyle;rounded=0;orthogonalLoop=1;jettySize=auto;html=1;exitX=1;exitY=0.5;exitDx=0;exitDy=0;strokeColor=#000000;" edge="1" parent="1" source="bbg8Lp6YEfKbnEey-BYv-13">
          <mxGeometry relative="1" as="geometry">
            <mxPoint x="560" y="410" as="targetPoint" />
          </mxGeometry>
        </mxCell>
        <mxCell id="bbg8Lp6YEfKbnEey-BYv-29" value="Varolan" style="edgeLabel;html=1;align=center;verticalAlign=middle;resizable=0;points=[];" vertex="1" connectable="0" parent="bbg8Lp6YEfKbnEey-BYv-15">
          <mxGeometry x="-0.32" y="4" relative="1" as="geometry">
            <mxPoint x="8" y="-6" as="offset" />
          </mxGeometry>
        </mxCell>
        <mxCell id="bbg8Lp6YEfKbnEey-BYv-17" style="edgeStyle=orthogonalEdgeStyle;rounded=0;orthogonalLoop=1;jettySize=auto;html=1;exitX=0.5;exitY=1;exitDx=0;exitDy=0;strokeColor=#000000;" edge="1" parent="1" source="bbg8Lp6YEfKbnEey-BYv-13">
          <mxGeometry relative="1" as="geometry">
            <mxPoint x="480" y="490" as="targetPoint" />
          </mxGeometry>
        </mxCell>
        <mxCell id="bbg8Lp6YEfKbnEey-BYv-30" value="Yeni" style="edgeLabel;html=1;align=center;verticalAlign=middle;resizable=0;points=[];" vertex="1" connectable="0" parent="bbg8Lp6YEfKbnEey-BYv-17">
          <mxGeometry x="-0.2" y="-3" relative="1" as="geometry">
            <mxPoint x="-22" as="offset" />
          </mxGeometry>
        </mxCell>
        <mxCell id="bbg8Lp6YEfKbnEey-BYv-13" value="Kullanıcı" style="rhombus;whiteSpace=wrap;html=1;" vertex="1" parent="1">
          <mxGeometry x="450" y="380" width="60" height="60" as="geometry" />
        </mxCell>
        <mxCell id="bbg8Lp6YEfKbnEey-BYv-19" style="edgeStyle=orthogonalEdgeStyle;rounded=0;orthogonalLoop=1;jettySize=auto;html=1;exitX=0.5;exitY=1;exitDx=0;exitDy=0;strokeColor=#000000;entryX=0.89;entryY=0;entryDx=0;entryDy=0;entryPerimeter=0;" edge="1" parent="1" source="bbg8Lp6YEfKbnEey-BYv-16" target="bbg8Lp6YEfKbnEey-BYv-20">
          <mxGeometry relative="1" as="geometry">
            <mxPoint x="560" y="580" as="targetPoint" />
          </mxGeometry>
        </mxCell>
        <mxCell id="bbg8Lp6YEfKbnEey-BYv-16" value="Mesaj Yaz" style="rounded=1;whiteSpace=wrap;html=1;" vertex="1" parent="1">
          <mxGeometry x="560" y="390" width="90" height="40" as="geometry" />
        </mxCell>
        <mxCell id="bbg8Lp6YEfKbnEey-BYv-21" style="edgeStyle=orthogonalEdgeStyle;rounded=0;orthogonalLoop=1;jettySize=auto;html=1;entryX=0.5;entryY=0;entryDx=0;entryDy=0;strokeColor=#000000;" edge="1" parent="1" target="bbg8Lp6YEfKbnEey-BYv-20">
          <mxGeometry relative="1" as="geometry">
            <mxPoint x="480" y="531" as="sourcePoint" />
          </mxGeometry>
        </mxCell>
        <mxCell id="bbg8Lp6YEfKbnEey-BYv-18" value="Mesaj Yaz" style="rounded=1;whiteSpace=wrap;html=1;" vertex="1" parent="1">
          <mxGeometry x="435" y="490" width="90" height="40" as="geometry" />
        </mxCell>
        <mxCell id="bbg8Lp6YEfKbnEey-BYv-25" style="edgeStyle=orthogonalEdgeStyle;rounded=0;orthogonalLoop=1;jettySize=auto;html=1;exitX=0.5;exitY=1;exitDx=0;exitDy=0;entryX=0.5;entryY=0;entryDx=0;entryDy=0;strokeColor=#000000;" edge="1" parent="1" source="bbg8Lp6YEfKbnEey-BYv-20">
          <mxGeometry relative="1" as="geometry">
            <mxPoint x="475" y="630" as="targetPoint" />
          </mxGeometry>
        </mxCell>
        <mxCell id="bbg8Lp6YEfKbnEey-BYv-20" value="" style="whiteSpace=wrap;html=1;rounded=0;shadow=0;comic=0;labelBackgroundColor=none;strokeWidth=1;fontFamily=Verdana;fontSize=12;align=center;rotation=0;fillColor=#000000;" vertex="1" parent="1">
          <mxGeometry x="380" y="580" width="190" height="10" as="geometry" />
        </mxCell>
        <mxCell id="bbg8Lp6YEfKbnEey-BYv-28" style="edgeStyle=orthogonalEdgeStyle;rounded=0;orthogonalLoop=1;jettySize=auto;html=1;exitX=0.5;exitY=1;exitDx=0;exitDy=0;entryX=0.5;entryY=0;entryDx=0;entryDy=0;strokeColor=#000000;" edge="1" parent="1" source="bbg8Lp6YEfKbnEey-BYv-26" target="bbg8Lp6YEfKbnEey-BYv-27">
          <mxGeometry relative="1" as="geometry" />
        </mxCell>
        <mxCell id="bbg8Lp6YEfKbnEey-BYv-26" value="Mesajları&lt;br&gt;Görüntüle" style="rounded=1;whiteSpace=wrap;html=1;" vertex="1" parent="1">
          <mxGeometry x="415" y="630" width="120" height="60" as="geometry" />
        </mxCell>
        <mxCell id="bbg8Lp6YEfKbnEey-BYv-27" value="" style="ellipse;whiteSpace=wrap;html=1;rounded=0;shadow=0;comic=0;labelBackgroundColor=none;strokeWidth=1;fillColor=#000000;fontFamily=Verdana;fontSize=12;align=center;" vertex="1" parent="1">
          <mxGeometry x="455" y="720" width="40" height="40" as="geometry" />
        </mxCell>
      </root>
    </mxGraphModel>
  </diagram>
</mxfile>
